:SAMPLES-PER-SECOND 30
:FULLY-SPECIFIED
:DEGREES
145
root  3.876399994 36.87844464 3.071355632 -12.11700439 -51.71699524 22.48199463
lowerback  13.73670006 7.215350151 0.09600680321
upperback  4.676529884 9.423399925 -0.02053399943
thorax  -2.66418004 4.637629986 -1.54568994
lowerneck  2.098850012 -4.921840191 -10.10980034
upperneck  3.592220068 -6.697219849 -1.180019975
head  1.083889961 -3.497289896 1.285060048
lclavicle  0 -9.442270133e-015 7.951389973e-016
lhumerus  -25.74410057 -9.642640114 78.334198
lradius  2.409032925e-031 -2.581744449e-031 133.0180054
lwrist  -1.412450015e-030 1.765562519e-031 38.21269989
lhand  -1.496451383e-031 -27.76390076 20.11240005
lfingers  90 7.125020027 -90
lthumb  89.89689403 5.08795885 91.16245106
rclavicle  0 -9.442270133e-015 7.951389973e-016
rhumerus  3.260489941 3.069900036 -75.27120209
rradius  6.283955066e-032 3.474760873e-031 79.74909973
rwrist  7.062250077e-031 7.062250077e-031 -47.63159943
rhand  -7.920061211e-032 -33.2840004 9.303460121
rfingers  -90 -7.125020027 -90
rthumb  -92.93752616 -24.25625642 -97.11982154
rfemur  -0.9549350142 11.77470016 1.214779973
rtibia  -0 0 50.92259979
rfoot  -0 -39.13100052 -24.94029999
rtoes  5.373923086 19.29304026 -105.8922705
lfemur  -34.26620102 1.373059988 -16.5692997
ltibia  -0 0 53.02700043
lfoot  4.568562562e-032 -14.95079994 4.129360199
ltoes  -4.250644065 -19.5611806 -102.515957
146
root  3.995755714 37.08399975 2.92962217 -11.40698242 -53.21700287 22.10198975
lowerback  13.84640026 7.340209961 0.4345679879
upperback  4.72758007 9.625149727 0.009691780433
thorax  -2.614530087 4.736830235 -1.734619975
lowerneck  1.873399973 -4.658979893 -10.27869987
upperneck  2.887120008 -6.348720074 -1.246490002
head  0.8852019906 -3.299350023 1.301460028
lclavicle  0 -9.442270133e-015 7.951389973e-016
lhumerus  -27.35239983 -8.888059616 79.21299744
lradius  2.439146689e-031 -2.553313037e-031 133.6900024
lwrist  -7.062250077e-031 1.765562519e-031 35.87179947
lhand  -1.496451383e-031 -27.76390076 20.11240005
lfingers  90 7.125020027 -90
lthumb  89.89689403 5.08795885 91.16245106
rclavicle  0 -9.442270133e-015 7.951389973e-016
rhumerus  1.131049991 4.263999939 -75.4681015
rradius  5.453151143e-032 3.488764174e-031 81.11620331
rwrist  7.062250077e-031 7.062250077e-031 -44.95230103
rhand  -7.920061211e-032 -33.2840004 9.303460121
rfingers  -90 -7.125020027 -90
rthumb  -92.93752616 -24.25625642 -97.11982154
rfemur  -1.84284997 12.59659958 2.004359961
rtibia  -0 0 49.74670029
rfoot  -0 -39.78710175 -26.23970032
rtoes  5.373923086 19.29304026 -105.8922705
lfemur  -34.71580124 2.751480103 -16.01720047
ltibia  -0 0 52.72999954
lfoot  4.548869724e-032 -13.99180031 4.488389969
ltoes  -4.250644065 -19.5611806 -102.515957
147
root  4.108666623 37.31977808 2.800311066 -10.78399658 -54.92199707 21.73400879
lowerback  13.91829967 7.465620041 0.727527976
upperback  4.836689949 9.819319725 0.04320690036
thorax  -2.489749908 4.833089828 -1.883990049
lowerneck  1.851519942 -4.302440166 -10.32999992
upperneck  2.05546999 -5.905769825 -1.361179948
head  0.6023709774 -3.045830011 1.289630055
lclavicle  0 -9.442270133e-015 7.951389973e-016
lhumerus  -28.73259926 -8.085089684 79.95130157
lradius  2.465397534e-031 -2.527975284e-031 134.2819977
lwrist  -7.062250077e-031 4.413906298e-032 33.40019989
lhand  -1.496451383e-031 -27.76390076 20.11240005
lfingers  90 7.125020027 -90
lthumb  89.89689403 5.08795885 91.16245106
rclavicle  0 -9.442270133e-015 7.951389973e-016
rhumerus  -0.7145450115 5.604390144 -75.80789948
rradius  4.683149855e-032 3.499932158e-031 82.37870026
rwrist  7.062250077e-031 -0 -42.1391983
rhand  -7.920061211e-032 -33.2840004 9.303460121
rfingers  -90 -7.125020027 -90
rthumb  -92.93752616 -24.25625642 -97.11982154
rfemur  -2.86777997 13.29629993 2.542860031
rtibia  -0 0 48.71780014
rfoot  -0 -39.72520065 -27.13660049
rtoes  5.373923086 19.29304026 -105.8922705
lfemur  -34.77819824 3.669420004 -15.1552
ltibia  -0 0 52.15819931
lfoot  4.529155769e-032 -12.9531002 4.422629833
ltoes  -4.250644065 -19.5611806 -102.515957
148
root  4.225911118 37.57466594 2.698488874 -9.835998535 -56.58999634 21.04101562
lowerback  13.89789963 7.502840042 1.18482995
upperback  4.891260147 9.923549652 0.138748005
thorax  -2.358109951 4.886300087 -2.034579992
lowerneck  1.866629958 -3.86232996 -10.26830006
upperneck  1.453230023 -5.347750187 -1.65357995
head  0.3734489977 -2.742690086 1.198519945
lclavicle  0 -9.442270133e-015 7.951389973e-016
lhumerus  -30.03840065 -7.097849846 80.70089722
lradius  2.487626433e-031 -2.5061043e-031 134.7879944
lwrist  0 7.724336022e-032 30.86520004
lhand  -1.496451383e-031 -27.76390076 20.11240005
lfingers  90 7.125020027 -90
lthumb  89.89689403 5.08795885 91.16245106
rclavicle  0 -9.442270133e-015 7.951389973e-016
rhumerus  -2.449709892 7.113699913 -76.12280273
rradius  3.984672301e-032 3.508570635e-031 83.52069855
rwrist  7.062250077e-031 2.648343779e-031 -39.04000092
rhand  -7.920061211e-032 -33.2840004 9.303460121
rfingers  -90 -7.125020027 -90
rthumb  -92.93752616 -24.25625642 -97.11982154
rfemur  -4.050670147 13.60330009 2.971829891
rtibia  -0 0 47.88690186
rfoot  -0 -39.35229874 -27.03809929
rtoes  5.373923086 19.29304026 -105.8922705
lfemur  -34.66790009 3.960210085 -13.92739964
ltibia  -0 0 51.29990005
lfoot  4.508287221e-032 -11.74450016 4.661489964
ltoes  -4.250644065 -19.5611806 -102.515957
149
root  4.345222158 37.83888929 2.619733397 -9.060974121 -58.22699738 20.55297852
lowerback  13.57400036 7.412499905 1.786820054
upperback  5.063849926 9.867159843 0.09814170003
thorax  -1.897410035 4.87130022 -2.322030067
lowerneck  2.099900007 -3.342799902 -10.24779987
upperneck  0.7705379725 -4.719110012 -1.905820012
head  0.08549439907 -2.39805007 1.131410003
lclavicle  0 -9.442270133e-015 7.951389973e-016
lhumerus  -31.03930092 -5.995049953 81.23500061
lradius  2.507058771e-031 -2.486664504e-031 135.2339935
lwrist  -7.062250077e-031 4.082863326e-031 28.45929909
lhand  -1.496451383e-031 -27.76390076 20.11240005
lfingers  90 7.125020027 -90
lthumb  89.89689403 5.08795885 91.16245106
rclavicle  0 -9.442270133e-015 7.951389973e-016
rhumerus  -3.866009951 8.655110359 -76.6065979
rradius  3.326762485e-032 3.515418972e-031 84.59400177
rwrist  7.062250077e-031 2.648343779e-031 -35.73730087
rhand  -7.920061211e-032 -33.2840004 9.303460121
rfingers  -90 -7.125020027 -90
rthumb  -92.93752616 -24.25625642 -97.11982154
rfemur  -5.388820171 13.57909966 2.988090038
rtibia  -0 0 47.30759811
rfoot  -0 -38.32170105 -26.30960083
rtoes  5.373923086 19.29304026 -105.8922705
lfemur  -34.31650162 3.867399931 -12.73490047
ltibia  -0 0 50.18379974
lfoot  4.490830833e-032 -10.62010002 4.833449841
ltoes  -4.250644065 -19.5611806 -102.515957
150
root  4.466511133 38.1153347 2.55379996 -8.940979004 -59.94499969 20.6630249
lowerback  13.2663002 7.31787014 2.253910065
upperback  5.355569839 9.774000168 -0.0740969032
thorax  -1.321699977 4.843400002 -2.659800053
lowerneck  2.376820087 -2.826819897 -10.20250034
upperneck  0.1345199943 -4.101900101 -2.185610056
head  -0.1929630041 -2.059020042 1.048449993
lclavicle  0 -9.442270133e-015 7.951389973e-016
lhumerus  -31.70929909 -5.075399876 81.58809662
lradius  2.528276633e-031 -2.465088498e-031 135.7250061
lwrist  -1.412450015e-030 1.765562519e-031 26.08189964
lhand  -1.496451383e-031 -27.76390076 20.11240005
lfingers  90 7.125020027 -90
lthumb  89.89689403 5.08795885 91.16245106
rclavicle  0 -9.442270133e-015 7.951389973e-016
rhumerus  -5.041319847 10.06499958 -77.18289948
rradius  2.6069085e-032 3.521488935e-031 85.7661972
rwrist  7.062250077e-031 6.620859447e-032 -32.51940155
rhand  -7.920061211e-032 -33.2840004 9.303460121
rfingers  -90 -7.125020027 -90
rthumb  -92.93752616 -24.25625642 -97.11982154
rfemur  -6.821310043 13.30210018 2.44588995
rtibia  -0 0 46.97430038
rfoot  -0 -36.16279984 -25.36569977
rtoes  5.373923086 19.29304026 -105.8922705
lfemur  -33.62689972 3.721489906 -11.86130047
ltibia  -0 0 48.89199829
lfoot  4.47504588e-032 -9.481909752 4.752389908
ltoes  -4.250644065 -19.5611806 -102.515957
